TITLE ""
FILE "Step4_Track16.mp3" MP3
  TRACK 01 AUDIO
    TITLE "Step4_Track16_01"
    INDEX 01 00:00:00
  TRACK 02 AUDIO
    TITLE "Step4_Track16_02"
    INDEX 01 00:00:24
  TRACK 03 AUDIO
    TITLE "Step4_Track16_03"
    INDEX 01 00:01:70
  TRACK 04 AUDIO
    TITLE "Step4_Track16_04"
    INDEX 01 00:02:41
  TRACK 05 AUDIO
    TITLE "Step4_Track16_05"
    INDEX 01 00:03:40
  TRACK 06 AUDIO
    TITLE "Step4_Track16_06"
    INDEX 01 00:03:73
  TRACK 07 AUDIO
    TITLE "Step4_Track16_07"
    INDEX 01 00:06:19
  TRACK 08 AUDIO
    TITLE "Step4_Track16_08"
    INDEX 01 00:06:36
  TRACK 09 AUDIO
    TITLE "Step4_Track16_09"
    INDEX 01 00:07:28
  TRACK 10 AUDIO
    TITLE "Step4_Track16_10"
    INDEX 01 00:07:46
  TRACK 11 AUDIO
    TITLE "Step4_Track16_11"
    INDEX 01 00:09:05
  TRACK 12 AUDIO
    TITLE "Step4_Track16_12"
    INDEX 01 00:09:29
  TRACK 13 AUDIO
    TITLE "Step4_Track16_13"
    INDEX 01 00:10:20
  TRACK 14 AUDIO
    TITLE "Step4_Track16_14"
    INDEX 01 00:10:26
  TRACK 15 AUDIO
    TITLE "Step4_Track16_15"
    INDEX 01 00:12:19
  TRACK 16 AUDIO
    TITLE "Step4_Track16_16"
    INDEX 01 00:12:39
  TRACK 17 AUDIO
    TITLE "Step4_Track16_17"
    INDEX 01 00:13:40
  TRACK 18 AUDIO
    TITLE "Step4_Track16_18"
    INDEX 01 00:13:54
  TRACK 19 AUDIO
    TITLE "Step4_Track16_19"
    INDEX 01 00:15:39
  TRACK 20 AUDIO
    TITLE "Step4_Track16_20"
    INDEX 01 00:15:65
  TRACK 21 AUDIO
    TITLE "Step4_Track16_21"
    INDEX 01 00:16:58
  TRACK 22 AUDIO
    TITLE "Step4_Track16_22"
    INDEX 01 00:16:64
  TRACK 23 AUDIO
    TITLE "Step4_Track16_23"
    INDEX 01 00:18:57
  TRACK 24 AUDIO
    TITLE "Step4_Track16_24"
    INDEX 01 00:18:71
  TRACK 25 AUDIO
    TITLE "Step4_Track16_25"
    INDEX 01 00:19:68
  TRACK 26 AUDIO
    TITLE "Step4_Track16_26"
    INDEX 01 00:19:70
  TRACK 27 AUDIO
    TITLE "Step4_Track16_27"
    INDEX 01 00:21:69
  TRACK 28 AUDIO
    TITLE "Step4_Track16_28"
    INDEX 01 00:22:24
  TRACK 29 AUDIO
    TITLE "Step4_Track16_29"
    INDEX 01 00:23:27
  TRACK 30 AUDIO
    TITLE "Step4_Track16_30"
    INDEX 01 00:23:41
  TRACK 31 AUDIO
    TITLE "Step4_Track16_31"
    INDEX 01 00:26:02
  TRACK 32 AUDIO
    TITLE "Step4_Track16_32"
    INDEX 01 00:26:16
  TRACK 33 AUDIO
    TITLE "Step4_Track16_33"
    INDEX 01 00:27:05
  TRACK 34 AUDIO
    TITLE "Step4_Track16_34"
    INDEX 01 00:27:29
  TRACK 35 AUDIO
    TITLE "Step4_Track16_35"
    INDEX 01 00:30:23
  TRACK 36 AUDIO
    TITLE "Step4_Track16_36"
    INDEX 01 00:30:35
  TRACK 37 AUDIO
    TITLE "Step4_Track16_37"
    INDEX 01 00:31:34
  TRACK 38 AUDIO
    TITLE "Step4_Track16_38"
    INDEX 01 00:31:44
  TRACK 39 AUDIO
    TITLE "Step4_Track16_39"
    INDEX 01 00:33:10
  TRACK 40 AUDIO
    TITLE "Step4_Track16_40"
    INDEX 01 00:33:33
  TRACK 41 AUDIO
    TITLE "Step4_Track16_41"
    INDEX 01 00:34:27
  TRACK 42 AUDIO
    TITLE "Step4_Track16_42"
    INDEX 01 00:34:31
  TRACK 43 AUDIO
    TITLE "Step4_Track16_43"
    INDEX 01 00:36:16
